<svg width="22" height="22" viewBox="0 0 22 22" fill="none" xmlns="http://www.w3.org/2000/svg">
<path d="M18.6154 8.25H17.7692V5.6265C17.7692 2.47156 14.96 0 10.9687 0C6.96131 0 4.23077 2.52381 4.23077 5.6265V8.25H3.38462C1.518 8.25 0 9.48337 0 11V19.25C0 20.7666 1.518 22 3.38462 22H18.6154C20.482 22 22 20.7666 22 19.25V11C22 9.48337 20.482 8.25 18.6154 8.25ZM5.92308 5.6265C5.92308 3.28281 7.89462 1.375 10.9687 1.375C14.0115 1.375 16.0769 3.24225 16.0769 5.6265V8.25H5.92308V5.6265ZM20.3077 19.25C20.3077 20.0076 19.5478 20.625 18.6154 20.625H3.38462C2.45131 20.625 1.69231 20.0076 1.69231 19.25V11C1.69231 10.2424 2.45131 9.625 3.38462 9.625H18.6154C19.5478 9.625 20.3077 10.2424 20.3077 11V19.25ZM11 12.375C10.0658 12.375 9.30769 12.9903 9.30769 13.75C9.30769 14.2574 9.65038 14.696 10.1538 14.9346V17.1875C10.1538 17.567 10.5329 17.875 11 17.875C11.4671 17.875 11.8462 17.567 11.8462 17.1875V14.9346C12.3496 14.6967 12.6923 14.2574 12.6923 13.75C12.6923 12.9903 11.935 12.375 11 12.375Z" fill="#EE0606"/>
</svg>
