<svg width="22" height="22" viewBox="0 0 22 22" fill="none" xmlns="http://www.w3.org/2000/svg">
<path d="M18.6154 8.28044H6.53231L6.094 6.68821C5.34685 4.42917 6.644 2.17699 9.61315 1.53214C12.5518 0.894147 15.1419 2.26 15.9018 4.55745L16.2614 5.71407C16.3824 6.0804 16.8461 6.29718 17.2979 6.19908C17.7498 6.10098 18.0172 5.72505 17.8962 5.35871L17.5365 4.20141C16.5322 1.16032 13.0308 -0.631544 9.17569 0.206077C5.30538 1.04713 3.47177 4.05255 4.46008 7.04287L4.80023 8.27975H3.38462C1.518 8.27975 0 9.51046 0 11.0238V19.256C0 20.7693 1.518 22 3.38462 22H18.6154C20.482 22 22 20.7693 22 19.256V11.0238C22 9.51046 20.482 8.27975 18.6154 8.27975V8.28044ZM20.3077 19.2573C20.3077 20.0133 19.5478 20.6293 18.6154 20.6293H3.38462C2.45131 20.6293 1.69231 20.0133 1.69231 19.2573V11.0252C1.69231 10.2692 2.45131 9.65315 3.38462 9.65315H18.6154C19.5478 9.65315 20.3077 10.2692 20.3077 11.0252V19.2573ZM11 12.3972C10.0658 12.3972 9.30769 13.0112 9.30769 13.7692C9.30769 14.2755 9.65038 14.7132 10.1538 14.9512V17.1993C10.1538 17.578 10.5329 17.8853 11 17.8853C11.4671 17.8853 11.8462 17.578 11.8462 17.1993V14.9512C12.3496 14.7139 12.6923 14.2755 12.6923 13.7692C12.6923 13.0112 11.935 12.3972 11 12.3972Z" fill="#4A9A3D"/>
</svg>
