<svg width="18" height="24" viewBox="0 0 18 24" fill="none" xmlns="http://www.w3.org/2000/svg">
<path d="M7.46256 4.97504L12.0092 8.00616C14.0123 9.34153 15.0138 10.0092 15.3628 10.8508C15.668 11.5866 15.668 12.4134 15.3628 13.1492C15.0138 13.9908 14.0123 14.6585 12.0092 15.9938L7.46256 19.025L7.46254 19.025C5.03838 20.6411 3.8263 21.4491 2.82119 21.3891C1.94557 21.3368 1.13668 20.9039 0.60747 20.2044C0 19.4014 0 17.9446 0 15.0311V8.96888C0 6.05539 0 4.59865 0.60747 3.79563C1.13668 3.09607 1.94557 2.66317 2.82119 2.61088C3.82631 2.55087 5.03839 3.35893 7.46256 4.97504Z" stroke="#1D1E1F" stroke-width="2"/>
</svg>
